<?xml version="1.0" encoding="utf-8"?>
<!-- Generator: Adobe Illustrator 21.0.2, SVG Export Plug-In . SVG Version: 6.00 Build 0)  -->
<svg version="1.1" id="Layer_1" xmlns="http://www.w3.org/2000/svg" xmlns:xlink="http://www.w3.org/1999/xlink" x="0px" y="0px"
	 viewBox="0 0 40 40" style="enable-background:new 0 0 40 40;" xml:space="preserve">
<style type="text/css">
	.st0{display:none;fill:#636D76;}
	.st1{fill:#FFFFFF;}
</style>
<circle class="st0" cx="20" cy="14" r="12"/>
<g>
	<path class="st1" d="M31.9,19.7h-11c-0.6,0-1-0.4-1-1s0.4-1,1-1h11c0.6,0,1,0.4,1,1S32.4,19.7,31.9,19.7z"/>
</g>
<g>
	<path class="st1" d="M17.1,19.7h-4.9c-0.6,0-1-0.4-1-1s0.4-1,1-1h4.9c0.6,0,1,0.4,1,1S17.6,19.7,17.1,19.7z"/>
</g>
<g>
	<path class="st1" d="M30,9.8H19c-0.6,0-1-0.4-1-1s0.4-1,1-1h11c0.6,0,1,0.4,1,1S30.6,9.8,30,9.8z"/>
</g>
<g>
	<path class="st1" d="M15.2,9.8h-4.9c-0.6,0-1-0.4-1-1s0.4-1,1-1h4.9c0.6,0,1,0.4,1,1S15.8,9.8,15.2,9.8z"/>
</g>
<g>
	<path class="st1" d="M35.2,14.7h-8.9c-0.6,0-1-0.4-1-1s0.4-1,1-1h8.9c0.6,0,1,0.4,1,1S35.7,14.7,35.2,14.7z"/>
</g>
<g>
	<path class="st1" d="M19.3,25.1H9.2c-0.6,0-1-0.4-1-1s0.4-1,1-1h10.1c0.6,0,1,0.4,1,1S19.9,25.1,19.3,25.1z"/>
</g>
<g>
	<path class="st1" d="M26.9,25.1H24c-0.6,0-1-0.4-1-1s0.4-1,1-1h2.9c0.6,0,1,0.4,1,1S27.4,25.1,26.9,25.1z"/>
</g>
<g>
	<path class="st1" d="M19.7,5.4h-6.6c-0.6,0-1-0.4-1-1s0.4-1,1-1h6.6c0.6,0,1,0.4,1,1S20.3,5.4,19.7,5.4z"/>
</g>
<g>
	<path class="st1" d="M27.3,5.4h-2.9c-0.6,0-1-0.4-1-1s0.4-1,1-1h2.9c0.6,0,1,0.4,1,1S27.8,5.4,27.3,5.4z"/>
</g>
<g>
	<path class="st1" d="M21.1,14.8h-16c-0.6,0-1-0.4-1-1s0.4-1,1-1h16c0.6,0,1,0.4,1,1S21.7,14.8,21.1,14.8z"/>
</g>
<g>
	<path class="st1" d="M31.9,19.7h-11c-0.6,0-1-0.4-1-1s0.4-1,1-1h11c0.6,0,1,0.4,1,1S32.4,19.7,31.9,19.7z"/>
</g>
<g>
	<path class="st1" d="M17.1,19.7h-4.9c-0.6,0-1-0.4-1-1s0.4-1,1-1h4.9c0.6,0,1,0.4,1,1S17.6,19.7,17.1,19.7z"/>
</g>
<g>
	<path class="st1" d="M30,9.8H19c-0.6,0-1-0.4-1-1s0.4-1,1-1h11c0.6,0,1,0.4,1,1S30.6,9.8,30,9.8z"/>
</g>
<g>
	<path class="st1" d="M15.2,9.8h-4.9c-0.6,0-1-0.4-1-1s0.4-1,1-1h4.9c0.6,0,1,0.4,1,1S15.8,9.8,15.2,9.8z"/>
</g>
<g>
	<path class="st1" d="M35.2,14.7h-8.9c-0.6,0-1-0.4-1-1s0.4-1,1-1h8.9c0.6,0,1,0.4,1,1S35.7,14.7,35.2,14.7z"/>
</g>
<g>
	<path class="st1" d="M19.3,25.1H9.2c-0.6,0-1-0.4-1-1s0.4-1,1-1h10.1c0.6,0,1,0.4,1,1S19.9,25.1,19.3,25.1z"/>
</g>
<g>
	<path class="st1" d="M26.9,25.1H24c-0.6,0-1-0.4-1-1s0.4-1,1-1h2.9c0.6,0,1,0.4,1,1S27.4,25.1,26.9,25.1z"/>
</g>
<g>
	<path class="st1" d="M19.7,5.4h-6.6c-0.6,0-1-0.4-1-1s0.4-1,1-1h6.6c0.6,0,1,0.4,1,1S20.3,5.4,19.7,5.4z"/>
</g>
<g>
	<path class="st1" d="M27.3,5.4h-2.9c-0.6,0-1-0.4-1-1s0.4-1,1-1h2.9c0.6,0,1,0.4,1,1S27.8,5.4,27.3,5.4z"/>
</g>
<g>
	<path class="st1" d="M21.1,14.8h-16c-0.6,0-1-0.4-1-1s0.4-1,1-1h16c0.6,0,1,0.4,1,1S21.7,14.8,21.1,14.8z"/>
</g>
</svg>
