<?xml version="1.0" encoding="utf-8"?>
<!-- Generator: Adobe Illustrator 21.0.2, SVG Export Plug-In . SVG Version: 6.00 Build 0)  -->
<svg version="1.1" id="Layer_1" xmlns="http://www.w3.org/2000/svg" xmlns:xlink="http://www.w3.org/1999/xlink" x="0px" y="0px"
	 viewBox="0 0 40 40" style="enable-background:new 0 0 40 40;" xml:space="preserve">
<style type="text/css">
	.st0{fill:#E6E8EC;}
	.st1{fill:#5EE1F1;}
</style>
<path class="st0" d="M34.1,12.5c0-4.5-3.6-8.1-8.1-8.1c-0.4,0-0.8,0-1.2,0.1c-1.5-1.7-3.6-2.8-6.1-2.8c-2.9,0-5.5,1.6-6.9,3.9
	c-3.8,0.7-6.7,4-6.7,8c0,3.3,2,6.2,4.9,7.4c1.4,2.5,4,4.2,7.1,4.2c1.5,0,2.9-0.4,4.1-1.1c1,0.5,2.1,0.7,3.2,0.7c4,0,7.3-3.1,7.6-7.1
	C33.3,16.4,34.1,14.5,34.1,12.5z"/>
<path class="st1" d="M26.3,29.3c0,0.8-0.7,1.5-1.5,1.5s-1.5-0.7-1.5-1.5s1.5-2.7,1.5-2.7S26.3,28.5,26.3,29.3z"/>
<path class="st1" d="M20,33.5c0,0.8-0.7,1.5-1.5,1.5S17,34.3,17,33.5s1.5-2.7,1.5-2.7S20,32.7,20,33.5z"/>
<path class="st1" d="M14.1,29.3c0,0.8-0.7,1.5-1.5,1.5s-1.5-0.7-1.5-1.5s1.5-2.7,1.5-2.7S14.1,28.5,14.1,29.3z"/>
</svg>
