<?xml version="1.0" encoding="utf-8"?>
<!-- Generator: Adobe Illustrator 21.0.2, SVG Export Plug-In . SVG Version: 6.00 Build 0)  -->
<svg version="1.1" id="Layer_1" xmlns="http://www.w3.org/2000/svg" xmlns:xlink="http://www.w3.org/1999/xlink" x="0px" y="0px"
	 viewBox="0 0 40 40" style="enable-background:new 0 0 40 40;" xml:space="preserve">
<style type="text/css">
	.st0{fill:#FFFFFF;}
</style>
<g>
	<path class="st0" d="M31.3,10.5c0.2-0.6,0.2-1.1,0.2-1.7c0-3.6-2.9-6.6-6.6-6.6c-1.9,0-3.6,0.8-4.8,2.1c-1.2-1.3-2.9-2.1-4.8-2.1
		c-3.6,0-6.6,2.9-6.6,6.6c0,0.2,0,0.4,0,0.7c-1.9,1.2-3.1,3.2-3.1,5.6c0,3.6,2.9,6.6,6.6,6.6c0.6,0,1.3-0.1,1.8-0.3
		c1.1,2.1,3.3,3.5,5.8,3.5c2.3,0,4.3-1.2,5.5-2.9c0.6,0.2,1.1,0.2,1.7,0.2c3.6,0,6.6-2.9,6.6-6.6C33.6,13.5,32.7,11.7,31.3,10.5z"/>
</g>
<g>
	<path class="st0" d="M25.7,32.5c-0.3,0-0.5-0.2-0.5-0.5v-6.2c0-0.3,0.2-0.5,0.5-0.5s0.5,0.2,0.5,0.5V32
		C26.2,32.3,25.9,32.5,25.7,32.5z"/>
</g>
<g>
	<path class="st0" d="M19.6,37.5c-0.3,0-0.5-0.2-0.5-0.5v-6.2c0-0.3,0.2-0.5,0.5-0.5s0.5,0.2,0.5,0.5V37
		C20.1,37.3,19.9,37.5,19.6,37.5z"/>
</g>
<g>
	<path class="st0" d="M12.6,32.5c-0.3,0-0.5-0.2-0.5-0.5v-6.2c0-0.3,0.2-0.5,0.5-0.5s0.5,0.2,0.5,0.5V32
		C13.1,32.3,12.9,32.5,12.6,32.5z"/>
</g>
</svg>
