<?xml version="1.0" encoding="utf-8"?>
<!-- Generator: Adobe Illustrator 21.0.2, SVG Export Plug-In . SVG Version: 6.00 Build 0)  -->
<svg version="1.1" id="Layer_1" xmlns="http://www.w3.org/2000/svg" xmlns:xlink="http://www.w3.org/1999/xlink" x="0px" y="0px"
	 viewBox="0 0 40 40" style="enable-background:new 0 0 40 40;" xml:space="preserve">
<style type="text/css">
	.st0{fill:#FFFFFF;}
</style>
<g>
	<path class="st0" d="M31.3,10.5c0.2-0.6,0.2-1.1,0.2-1.7c0-3.6-2.9-6.6-6.6-6.6c-1.9,0-3.6,0.8-4.8,2.1c-1.2-1.3-2.9-2.1-4.8-2.1
		c-3.6,0-6.6,2.9-6.6,6.6c0,0.2,0,0.4,0,0.7c-1.9,1.2-3.1,3.2-3.1,5.6c0,3.6,2.9,6.6,6.6,6.6c0.6,0,1.3-0.1,1.8-0.3
		c1.1,2.1,3.3,3.5,5.8,3.5c2.3,0,4.3-1.2,5.5-2.9c0.6,0.2,1.1,0.2,1.7,0.2c3.6,0,6.6-2.9,6.6-6.6C33.6,13.5,32.7,11.7,31.3,10.5z"/>
</g>
<g>
	<path class="st0" d="M21.4,34.4h-0.6l0.4-0.4c0.2-0.2,0.2-0.5,0-0.7s-0.5-0.2-0.7,0l-0.3,0.3v-0.5c0-0.3-0.2-0.5-0.5-0.5
		s-0.5,0.2-0.5,0.5v0.6l-0.4-0.4c-0.2-0.2-0.5-0.2-0.7,0s-0.2,0.5,0,0.7l0.4,0.4h-0.6c-0.3,0-0.5,0.2-0.5,0.5s0.2,0.5,0.5,0.5h0.5
		L18,35.7c-0.2,0.2-0.2,0.5,0,0.7c0.1,0.1,0.2,0.1,0.4,0.1s0.3,0,0.4-0.1l0.4-0.4v0.6c0,0.3,0.2,0.5,0.5,0.5s0.5-0.2,0.5-0.5v-0.5
		l0.3,0.3c0.1,0.1,0.2,0.1,0.4,0.1s0.3,0,0.4-0.1c0.2-0.2,0.2-0.5,0-0.7l-0.3-0.3h0.5c0.3,0,0.5-0.2,0.5-0.5S21.7,34.4,21.4,34.4z"
		/>
	<path class="st0" d="M14.4,26.9h-0.6l0.4-0.4c0.2-0.2,0.2-0.5,0-0.7s-0.5-0.2-0.7,0l-0.3,0.3v-0.5c0-0.3-0.2-0.5-0.5-0.5
		s-0.5,0.2-0.5,0.5v0.6l-0.4-0.4c-0.2-0.2-0.5-0.2-0.7,0s-0.2,0.5,0,0.7l0.4,0.4h-0.6c-0.3,0-0.5,0.2-0.5,0.5s0.2,0.5,0.5,0.5h0.5
		L11,28.2c-0.2,0.2-0.2,0.5,0,0.7c0.1,0.1,0.2,0.1,0.4,0.1s0.3,0,0.4-0.1l0.4-0.4v0.6c0,0.3,0.2,0.5,0.5,0.5s0.5-0.2,0.5-0.5v-0.5
		l0.3,0.3c0.1,0.1,0.2,0.1,0.4,0.1s0.3,0,0.4-0.1c0.2-0.2,0.2-0.5,0-0.7l-0.3-0.3h0.5c0.3,0,0.5-0.2,0.5-0.5S14.7,26.9,14.4,26.9z"
		/>
	<path class="st0" d="M28.5,28.9h-0.7l0.4-0.5c0.2-0.2,0.2-0.5,0-0.7c-0.2-0.2-0.5-0.2-0.7,0l-0.3,0.4v-0.5c0-0.3-0.2-0.5-0.5-0.5
		s-0.5,0.2-0.5,0.5v0.5l-0.3-0.4c-0.2-0.2-0.5-0.2-0.7,0c-0.2,0.2-0.2,0.5,0,0.7l0.4,0.5H25c-0.3,0-0.5,0.2-0.5,0.5s0.2,0.5,0.5,0.5
		h0.5l-0.3,0.4c-0.2,0.2-0.2,0.5,0,0.7c0.1,0.1,0.2,0.1,0.3,0.1c0.1,0,0.3-0.1,0.4-0.2l0.3-0.4v0.5c0,0.3,0.2,0.5,0.5,0.5
		s0.5-0.2,0.5-0.5v-0.5l0.3,0.4c0.1,0.1,0.2,0.2,0.4,0.2c0.1,0,0.2,0,0.3-0.1c0.2-0.2,0.2-0.5,0-0.7l-0.3-0.4h0.6
		c0.3,0,0.5-0.2,0.5-0.5S28.8,28.9,28.5,28.9z"/>
</g>
</svg>
