<?xml version="1.0" encoding="utf-8"?>
<!-- Generator: Adobe Illustrator 21.0.2, SVG Export Plug-In . SVG Version: 6.00 Build 0)  -->
<svg version="1.1" id="Layer_1" xmlns="http://www.w3.org/2000/svg" xmlns:xlink="http://www.w3.org/1999/xlink" x="0px" y="0px"
	 viewBox="0 0 40 40" style="enable-background:new 0 0 40 40;" xml:space="preserve">
<style type="text/css">
	.st0{fill:#E5E5E5;}
</style>
<path class="st0" d="M34.1,12.5c0-4.5-3.6-8.1-8.1-8.1c-0.4,0-0.8,0-1.2,0.1c-1.5-1.7-3.6-2.8-6.1-2.8c-2.9,0-5.5,1.6-6.9,3.9
	C8,6.3,5.1,9.6,5.1,13.6c0,3.3,2,6.2,4.9,7.4c1.4,2.5,4,4.2,7.1,4.2c1.5,0,2.9-0.4,4.1-1.1c1,0.5,2.1,0.7,3.2,0.7
	c4,0,7.3-3.1,7.6-7.1C33.3,16.4,34.1,14.5,34.1,12.5z"/>
<g>
	<g>
		<path class="st0" d="M20.2,34.6h-0.6l0.4-0.4c0.2-0.2,0.2-0.5,0-0.7s-0.5-0.2-0.7,0L19,33.8v-0.5c0-0.3-0.2-0.5-0.5-0.5
			S18,33,18,33.3v0.6l-0.4-0.4c-0.2-0.2-0.5-0.2-0.7,0s-0.2,0.5,0,0.7l0.4,0.4h-0.6c-0.3,0-0.5,0.2-0.5,0.5s0.2,0.5,0.5,0.5h0.5
			l-0.4,0.3c-0.2,0.2-0.2,0.5,0,0.7c0.1,0.1,0.2,0.1,0.4,0.1s0.3,0,0.4-0.1l0.4-0.4v0.6c0,0.3,0.2,0.5,0.5,0.5s0.5-0.2,0.5-0.5v-0.5
			l0.3,0.3c0.1,0.1,0.2,0.1,0.4,0.1s0.3,0,0.4-0.1c0.2-0.2,0.2-0.5,0-0.7l-0.3-0.3h0.5c0.3,0,0.5-0.2,0.5-0.5S20.5,34.6,20.2,34.6z"
			/>
		<path class="st0" d="M13.2,27.1h-0.6l0.4-0.4c0.2-0.2,0.2-0.5,0-0.7s-0.5-0.2-0.7,0L12,26.3v-0.5c0-0.3-0.2-0.5-0.5-0.5
			S11,25.5,11,25.8v0.6L10.6,26c-0.2-0.2-0.5-0.2-0.7,0s-0.2,0.5,0,0.7l0.4,0.4H9.7c-0.3,0-0.5,0.2-0.5,0.5s0.2,0.5,0.5,0.5h0.5
			l-0.4,0.3c-0.2,0.2-0.2,0.5,0,0.7c0.1,0.1,0.2,0.1,0.4,0.1s0.3,0,0.4-0.1l0.4-0.4v0.6c0,0.3,0.2,0.5,0.5,0.5s0.5-0.2,0.5-0.5v-0.5
			l0.3,0.3c0.1,0.1,0.2,0.1,0.4,0.1s0.3,0,0.4-0.1c0.2-0.2,0.2-0.5,0-0.7l-0.3-0.3h0.5c0.3,0,0.5-0.2,0.5-0.5S13.5,27.1,13.2,27.1z"
			/>
		<path class="st0" d="M27.3,29.1h-0.7l0.4-0.5c0.2-0.2,0.2-0.5,0-0.7s-0.5-0.2-0.7,0L26,28.3v-0.5c0-0.3-0.2-0.5-0.5-0.5
			S25,27.5,25,27.8v0.5l-0.3-0.4c-0.2-0.2-0.5-0.2-0.7,0s-0.2,0.5,0,0.7l0.4,0.5h-0.6c-0.3,0-0.5,0.2-0.5,0.5s0.2,0.5,0.5,0.5h0.5
			L24,30.5c-0.2,0.2-0.2,0.5,0,0.7c0.1,0.1,0.2,0.1,0.3,0.1c0.1,0,0.3-0.1,0.4-0.2l0.3-0.4v0.5c0,0.3,0.2,0.5,0.5,0.5
			s0.5-0.2,0.5-0.5v-0.5l0.3,0.4c0.1,0.1,0.2,0.2,0.4,0.2c0.1,0,0.2,0,0.3-0.1c0.2-0.2,0.2-0.5,0-0.7l-0.3-0.4h0.6
			c0.3,0,0.5-0.2,0.5-0.5S27.6,29.1,27.3,29.1z"/>
	</g>
</g>
</svg>
