<?xml version="1.0" encoding="utf-8"?>
<!-- Generator: Adobe Illustrator 21.0.2, SVG Export Plug-In . SVG Version: 6.00 Build 0)  -->
<svg version="1.1" id="Layer_1" xmlns="http://www.w3.org/2000/svg" xmlns:xlink="http://www.w3.org/1999/xlink" x="0px" y="0px"
	 viewBox="0 0 40 40" style="enable-background:new 0 0 40 40;" xml:space="preserve">
<style type="text/css">
	.st0{fill:#636D76;}
	.st1{fill:none;stroke:#636D76;stroke-linecap:round;stroke-miterlimit:10;}
</style>
<g>
	<path class="st0" d="M31.3,10.5c0.2-0.6,0.2-1.1,0.2-1.7c0-3.6-2.9-6.6-6.6-6.6c-1.9,0-3.6,0.8-4.8,2.1c-1.2-1.3-2.9-2.1-4.8-2.1
		c-3.6,0-6.6,2.9-6.6,6.6c0,0.2,0,0.4,0,0.7c-1.9,1.2-3.1,3.2-3.1,5.6c0,3.6,2.9,6.6,6.6,6.6c0.6,0,1.3-0.1,1.8-0.3
		c1.1,2.1,3.3,3.5,5.8,3.5c2.3,0,4.3-1.2,5.5-2.9c0.6,0.2,1.1,0.2,1.7,0.2c3.6,0,6.6-2.9,6.6-6.6C33.6,13.5,32.7,11.7,31.3,10.5z"/>
</g>
<line class="st1" x1="17.9" y1="34.9" x2="21.4" y2="34.9"/>
<line class="st1" x1="19.7" y1="36.6" x2="19.7" y2="33.1"/>
<line class="st1" x1="18.4" y1="36.1" x2="20.9" y2="33.6"/>
<line class="st1" x1="20.9" y1="36.1" x2="18.4" y2="33.6"/>
<line class="st1" x1="10.9" y1="27.4" x2="14.4" y2="27.4"/>
<line class="st1" x1="12.7" y1="29.1" x2="12.7" y2="25.6"/>
<line class="st1" x1="11.4" y1="28.6" x2="13.9" y2="26.1"/>
<line class="st1" x1="13.9" y1="28.6" x2="11.4" y2="26.1"/>
<line class="st1" x1="25" y1="29.4" x2="28.5" y2="29.4"/>
<line class="st1" x1="26.7" y1="31.1" x2="26.7" y2="27.6"/>
<line class="st1" x1="25.5" y1="30.6" x2="27.9" y2="28.1"/>
<line class="st1" x1="27.9" y1="30.6" x2="25.5" y2="28.1"/>
</svg>
