<?xml version="1.0" encoding="utf-8"?>
<!-- Generator: Adobe Illustrator 21.0.2, SVG Export Plug-In . SVG Version: 6.00 Build 0)  -->
<svg version="1.1" id="Layer_1" xmlns="http://www.w3.org/2000/svg" xmlns:xlink="http://www.w3.org/1999/xlink" x="0px" y="0px"
	 viewBox="0 0 40 40" style="enable-background:new 0 0 40 40;" xml:space="preserve">
<style type="text/css">
	.st0{fill:#636D76;}
	.st1{fill:none;stroke:#636D76;stroke-width:2;stroke-linecap:round;stroke-miterlimit:10;}
	.st2{fill:none;stroke:#636D76;stroke-width:4;stroke-linecap:round;stroke-miterlimit:10;}
</style>
<circle class="st0" cx="20" cy="20" r="7.9"/>
<line class="st1" x1="35.4" y1="20" x2="32.1" y2="20"/>
<line class="st1" x1="7.9" y1="20" x2="4.6" y2="20"/>
<line class="st1" x1="35.4" y1="20" x2="32.1" y2="20"/>
<line class="st1" x1="30.9" y1="9.1" x2="28.6" y2="11.4"/>
<line class="st1" x1="11.4" y1="28.6" x2="9.1" y2="30.9"/>
<line class="st1" x1="30.9" y1="9.1" x2="28.6" y2="11.4"/>
<line class="st1" x1="20" y1="4.6" x2="20" y2="7.9"/>
<line class="st1" x1="20" y1="32.1" x2="20" y2="35.4"/>
<line class="st1" x1="20" y1="4.6" x2="20" y2="7.9"/>
<line class="st1" x1="9.1" y1="9.1" x2="11.4" y2="11.4"/>
<line class="st1" x1="28.6" y1="28.6" x2="30.9" y2="30.9"/>
<line class="st1" x1="9.1" y1="9.1" x2="11.4" y2="11.4"/>
<path class="st0" d="M-40.8-2.6c-7.2,0-13.1,5.9-13.1,13.1c0,0.4,0,0.9,0.1,1.3c-3.7,2.3-6.3,6.4-6.3,11.2c0,7.2,5.9,13.1,13.1,13.1
	c1.3,0,2.5-0.2,3.7-0.5c2.2,4.1,6.6,7,11.6,7c4.6,0,8.6-2.3,10.9-5.8c1.1,0.3,2.3,0.5,3.5,0.5c7.2,0,13.1-5.9,13.1-13.1
	c0-4-1.8-7.6-4.7-10c0.3-1.1,0.5-2.3,0.5-3.5c0-7.2-5.9-13.1-13.1-13.1"/>
<path class="st0" d="M-21.6-2.6c-3.8,0-7.2,1.6-9.6,4.2C-33.6-1-37-2.6-40.8-2.6"/>
<line class="st2" x1="-20.2" y1="44.6" x2="-20.2" y2="56.9"/>
<line class="st2" x1="-32.2" y1="54.6" x2="-32.2" y2="66.9"/>
<line class="st2" x1="-46.2" y1="44.6" x2="-46.2" y2="56.9"/>
</svg>
