<?xml version="1.0" standalone="no"?>
<!DOCTYPE svg PUBLIC "-//W3C//DTD SVG 20010904//EN"
 "http://www.w3.org/TR/2001/REC-SVG-20010904/DTD/svg10.dtd">
<svg version="1.0" xmlns="http://www.w3.org/2000/svg"
 width="700.000000pt" height="700.000000pt" viewBox="0 0 700.000000 700.000000"
 preserveAspectRatio="xMidYMid meet">
<metadata>
Created by potrace 1.11, written by Peter Selinger 2001-2013
</metadata>
<g transform="translate(0.000000,700.000000) scale(0.100000,-0.100000)"
fill="#000000" stroke="none">
<path d="M3505 6672 c-35 -7 -77 -55 -108 -122 -16 -36 -45 -98 -63 -138 -19
-41 -34 -75 -34 -77 0 -2 -13 -32 -29 -67 -16 -35 -136 -301 -266 -593 -130
-291 -250 -558 -266 -593 -16 -35 -29 -65 -29 -67 0 -2 -18 -43 -41 -92 -22
-48 -52 -114 -65 -146 -14 -32 -38 -88 -55 -125 -17 -37 -67 -148 -111 -247
-44 -99 -91 -205 -105 -235 -14 -30 -51 -113 -83 -185 -32 -71 -72 -160 -89
-198 -17 -37 -31 -69 -31 -72 0 -2 -15 -37 -34 -77 -37 -80 -50 -108 -141
-313 -35 -77 -77 -170 -94 -208 -17 -37 -31 -69 -31 -71 0 -2 -15 -37 -34 -78
-104 -224 -197 -441 -202 -474 -9 -53 -11 -954 -2 -1030 9 -77 38 -162 78
-223 40 -63 852 -874 912 -911 26 -16 75 -40 110 -52 63 -22 64 -22 826 -24
844 -2 835 -3 962 61 67 34 107 71 499 464 285 286 437 445 458 482 67 113 70
139 68 717 -1 389 -4 528 -14 562 -11 39 -71 179 -146 345 -13 28 -79 176
-148 330 -69 154 -141 315 -161 358 -20 43 -36 80 -36 83 0 2 -15 36 -34 76
-31 68 -109 242 -256 573 -34 77 -71 158 -81 180 -31 70 -154 344 -237 530
-44 99 -94 210 -111 248 -17 37 -31 69 -31 71 0 2 -20 47 -45 99 -25 53 -45
98 -45 101 0 2 -16 40 -36 83 -20 43 -62 137 -94 208 -32 72 -69 155 -83 185
-13 30 -51 114 -82 185 -32 72 -75 168 -96 213 -22 46 -39 86 -39 88 0 2 -11
28 -25 59 -47 102 -104 136 -200 117z"/>
</g>
</svg>
