<?xml version="1.0" standalone="no"?>
<!DOCTYPE svg PUBLIC "-//W3C//DTD SVG 20010904//EN"
 "http://www.w3.org/TR/2001/REC-SVG-20010904/DTD/svg10.dtd">
<svg version="1.0" xmlns="http://www.w3.org/2000/svg"
 width="700.000000pt" height="700.000000pt" viewBox="0 0 700.000000 700.000000"
 preserveAspectRatio="xMidYMid meet">
<metadata>
Created by potrace 1.11, written by Peter Selinger 2001-2013
</metadata>
<g transform="translate(0.000000,700.000000) scale(0.100000,-0.100000)"
fill="#000000" stroke="none">
<path d="M3508 5885 c-7 -14 -59 -103 -115 -197 -56 -95 -119 -204 -140 -241
-21 -38 -42 -76 -48 -85 -5 -10 -28 -49 -49 -87 -22 -39 -48 -86 -59 -105 -39
-69 -190 -347 -234 -430 -25 -47 -67 -125 -93 -175 -245 -462 -463 -926 -620
-1320 -4 -11 -15 -36 -23 -55 -43 -102 -128 -390 -151 -515 -14 -79 -15 -313
-1 -380 20 -97 28 -128 51 -199 71 -222 194 -418 369 -586 83 -80 117 -108
190 -158 39 -26 72 -49 75 -52 5 -5 42 -25 133 -74 92 -48 271 -111 387 -136
140 -29 162 -32 340 -35 163 -3 192 -1 360 31 169 32 392 121 548 220 229 146
441 382 546 609 41 90 43 94 70 175 58 176 80 429 50 585 -36 187 -130 470
-249 750 -7 17 -25 59 -40 95 -15 36 -52 116 -81 179 -30 62 -54 115 -54 118
0 6 -331 666 -340 678 -4 6 -36 64 -70 130 -35 66 -80 151 -101 188 -22 38
-39 71 -39 73 0 2 -20 38 -45 80 -25 41 -45 78 -45 80 0 6 -181 325 -280 494
-37 63 -76 129 -86 147 -102 174 -126 213 -134 218 -5 3 -15 -6 -22 -20z"/>
</g>
</svg>
