<?xml version="1.0" standalone="no"?>
<!DOCTYPE svg PUBLIC "-//W3C//DTD SVG 20010904//EN"
 "http://www.w3.org/TR/2001/REC-SVG-20010904/DTD/svg10.dtd">
<svg version="1.0" xmlns="http://www.w3.org/2000/svg"
 width="700.000000pt" height="700.000000pt" viewBox="0 0 700.000000 700.000000"
 preserveAspectRatio="xMidYMid meet">
<metadata>
Created by potrace 1.11, written by Peter Selinger 2001-2013
</metadata>
<g transform="translate(0.000000,700.000000) scale(0.100000,-0.100000)"
fill="#000000" stroke="none">
<path d="M3425 6665 c-169 -91 -531 -452 -835 -832 -14 -18 -35 -44 -47 -60
-33 -41 -206 -268 -223 -293 -8 -12 -37 -52 -63 -88 -210 -289 -474 -720 -630
-1027 -170 -336 -325 -732 -382 -976 -37 -163 -49 -233 -70 -413 -6 -52 -7
-373 -1 -416 3 -22 18 -161 21 -200 3 -41 30 -178 55 -285 83 -352 238 -675
451 -940 135 -168 400 -400 549 -481 19 -10 37 -21 40 -24 9 -10 224 -115 280
-137 138 -55 299 -102 437 -128 118 -22 132 -24 197 -31 122 -12 154 -13 311
-13 161 0 176 0 295 14 36 4 76 9 90 10 14 2 61 10 105 19 404 83 708 221 998
453 89 71 219 199 282 278 22 28 43 52 46 55 22 17 164 243 211 335 194 380
288 800 289 1295 0 85 -2 178 -6 205 -25 200 -25 202 -46 305 -37 183 -141
515 -210 667 -10 24 -19 45 -19 48 0 3 -13 34 -29 68 -16 34 -39 85 -51 112
-30 67 -136 280 -165 330 -12 22 -37 67 -55 100 -26 49 -89 156 -213 360 -45
73 -295 441 -334 490 -5 6 -40 53 -78 105 -39 52 -94 124 -122 160 -29 36 -65
81 -80 100 -31 38 -134 159 -221 260 -85 97 -377 389 -458 457 -91 77 -186
134 -232 140 -27 3 -50 -2 -87 -22z"/>
</g>
</svg>
