<?xml version="1.0" standalone="no"?>
<!DOCTYPE svg PUBLIC "-//W3C//DTD SVG 20010904//EN"
 "http://www.w3.org/TR/2001/REC-SVG-20010904/DTD/svg10.dtd">
<svg version="1.0" xmlns="http://www.w3.org/2000/svg"
 width="700.000000pt" height="700.000000pt" viewBox="0 0 700.000000 700.000000"
 preserveAspectRatio="xMidYMid meet">
<metadata>
Created by potrace 1.11, written by Peter Selinger 2001-2013
</metadata>
<g transform="translate(0.000000,700.000000) scale(0.100000,-0.100000)"
fill="#000000" stroke="none">
<path d="M3695 6904 c-27 -48 -61 -105 -74 -128 -13 -22 -40 -70 -61 -106 -46
-79 -291 -514 -332 -590 -17 -30 -43 -77 -58 -105 -183 -334 -268 -492 -469
-875 -72 -136 -427 -848 -474 -950 -14 -30 -48 -104 -76 -163 -28 -60 -51
-110 -51 -112 0 -2 -17 -41 -39 -87 -21 -45 -66 -148 -100 -228 -34 -80 -66
-154 -71 -165 -65 -137 -284 -757 -304 -862 -2 -10 -9 -36 -15 -58 -36 -138
-54 -266 -56 -406 -1 -103 16 -303 30 -348 2 -9 7 -34 11 -56 8 -52 69 -253
95 -313 58 -136 164 -331 221 -407 128 -171 285 -337 429 -450 234 -186 556
-343 858 -420 117 -30 169 -39 350 -64 63 -8 461 -6 511 3 14 2 43 7 65 9 77
11 120 18 135 23 8 3 26 8 40 10 94 16 354 96 375 115 5 5 15 9 22 9 21 0 202
90 308 153 287 170 533 405 713 682 60 92 153 275 182 356 12 35 31 88 41 117
23 68 66 259 76 342 12 102 9 387 -5 465 -16 83 -66 291 -87 355 -102 317
-191 556 -326 872 -92 217 -102 238 -169 383 -23 50 -55 117 -70 150 -15 33
-43 94 -62 135 -51 110 -337 682 -421 845 -298 571 -574 1077 -879 1610 -175
304 -199 345 -206 345 -4 0 -29 -39 -57 -86z"/>
</g>
</svg>
